<svg width="35" height="35" viewBox="0 0 35 35" fill="none" xmlns="http://www.w3.org/2000/svg">
<g clip-path="url(#clip0_0_1971)">
<rect width="35" height="35" fill="#8D976C"/>
<path d="M0 1.64062C0 0.731445 0.650174 0 1.45833 0H4.22309C5.5599 0 6.74479 0.875 7.29774 2.1875H32.2717C33.8698 2.1875 35.0365 3.89648 34.6172 5.63281L32.1259 16.0439C31.6094 18.1904 29.8776 19.6875 27.9028 19.6875H10.3724L10.7005 21.6357C10.8342 22.4082 11.4358 22.9688 12.1345 22.9688H29.6528C30.4609 22.9688 31.1111 23.7002 31.1111 24.6094C31.1111 25.5186 30.4609 26.25 29.6528 26.25H12.1345C10.0321 26.25 8.22743 24.5684 7.83854 22.251L4.70312 3.72559C4.66059 3.46582 4.46007 3.28125 4.22309 3.28125H1.45833C0.650174 3.28125 0 2.5498 0 1.64062ZM7.77778 31.7188C7.77778 31.2878 7.85322 30.8612 7.9998 30.4631C8.14637 30.065 8.36121 29.7032 8.63205 29.3986C8.90289 29.0939 9.22442 28.8522 9.57828 28.6873C9.93215 28.5224 10.3114 28.4375 10.6944 28.4375C11.0775 28.4375 11.4567 28.5224 11.8106 28.6873C12.1645 28.8522 12.486 29.0939 12.7568 29.3986C13.0277 29.7032 13.2425 30.065 13.3891 30.4631C13.5357 30.8612 13.6111 31.2878 13.6111 31.7188C13.6111 32.1497 13.5357 32.5763 13.3891 32.9744C13.2425 33.3725 13.0277 33.7343 12.7568 34.0389C12.486 34.3436 12.1645 34.5853 11.8106 34.7502C11.4567 34.9151 11.0775 35 10.6944 35C10.3114 35 9.93215 34.9151 9.57828 34.7502C9.22442 34.5853 8.90289 34.3436 8.63205 34.0389C8.36121 33.7343 8.14637 33.3725 7.9998 32.9744C7.85322 32.5763 7.77778 32.1497 7.77778 31.7188ZM28.1944 28.4375C28.968 28.4375 29.7099 28.7832 30.2568 29.3986C30.8038 30.0139 31.1111 30.8485 31.1111 31.7188C31.1111 32.589 30.8038 33.4236 30.2568 34.0389C29.7099 34.6543 28.968 35 28.1944 35C27.4209 35 26.679 34.6543 26.132 34.0389C25.5851 33.4236 25.2778 32.589 25.2778 31.7188C25.2778 30.8485 25.5851 30.0139 26.132 29.3986C26.679 28.7832 27.4209 28.4375 28.1944 28.4375ZM15.3125 10.9375C15.3125 11.6895 15.8594 12.3047 16.5278 12.3047H19.2014V15.3125C19.2014 16.0645 19.7483 16.6797 20.4167 16.6797C21.0851 16.6797 21.6319 16.0645 21.6319 15.3125V12.3047H24.3056C24.974 12.3047 25.5208 11.6895 25.5208 10.9375C25.5208 10.1855 24.974 9.57031 24.3056 9.57031H21.6319V6.5625C21.6319 5.81055 21.0851 5.19531 20.4167 5.19531C19.7483 5.19531 19.2014 5.81055 19.2014 6.5625V9.57031H16.5278C15.8594 9.57031 15.3125 10.1855 15.3125 10.9375Z" fill="white"/>
</g>
<defs>
<clipPath id="clip0_0_1971">
<rect width="35" height="35" fill="white"/>
</clipPath>
</defs>
</svg>
