<svg width="28" height="28" viewBox="0 0 28 28" fill="none" xmlns="http://www.w3.org/2000/svg">
<path d="M13.9998 4.66663C15.2375 4.66663 16.4245 5.15829 17.2997 6.03346C18.1748 6.90863 18.6665 8.09562 18.6665 9.33329C18.6665 10.571 18.1748 11.758 17.2997 12.6331C16.4245 13.5083 15.2375 14 13.9998 14C12.7622 14 11.5752 13.5083 10.7 12.6331C9.82484 11.758 9.33317 10.571 9.33317 9.33329C9.33317 8.09562 9.82484 6.90863 10.7 6.03346C11.5752 5.15829 12.7622 4.66663 13.9998 4.66663ZM13.9998 6.99996C13.381 6.99996 12.7875 7.24579 12.3499 7.68338C11.9123 8.12096 11.6665 8.71445 11.6665 9.33329C11.6665 9.95213 11.9123 10.5456 12.3499 10.9832C12.7875 11.4208 13.381 11.6666 13.9998 11.6666C14.6187 11.6666 15.2122 11.4208 15.6498 10.9832C16.0873 10.5456 16.3332 9.95213 16.3332 9.33329C16.3332 8.71445 16.0873 8.12096 15.6498 7.68338C15.2122 7.24579 14.6187 6.99996 13.9998 6.99996ZM13.9998 15.1666C17.1148 15.1666 23.3332 16.7183 23.3332 19.8333V23.3333H4.6665V19.8333C4.6665 16.7183 10.8848 15.1666 13.9998 15.1666ZM13.9998 17.3833C10.5348 17.3833 6.88317 19.0866 6.88317 19.8333V21.1166H21.1165V19.8333C21.1165 19.0866 17.4648 17.3833 13.9998 17.3833Z" fill="black"/>
</svg>
